# xmcd
#
# Track frame offsets:
#	150
#	22075
#	41260
#	61242
#	83122
#	108667
#	131045
#	157857
#	169460
#	187252
#	207480
#	227192
#	248687
#	268510
#
# Disc length: 4133 seconds
#
# Revision: 1
# Processed by: cddbd v1.5.1PL0 Copyright (c) Steve Scherf et al.
# Submitted via: CDex 1.50Beta5
#
DISCID=c510230e
DTITLE=さまざまなアーティスト - 夏物語〜SUMMER BEST SONGS〜
DYEAR=1900
DGENRE=Pop
TTITLE0=trf/BOY MEETS GIRL
TTITLE1=プリンセスプリンセス/世界で一番熱い夏
TTITLE2=Every Little Thing/出逢った頃のように
TTITLE3=ICE BOX/冷たいキス
TTITLE4=安室奈美恵/You're my sunshine
TTITLE5=Exile/kiss you
TTITLE6=m-flo/been so long
TTITLE7=センチメンタル・バス/Sunny Day Sunday
TTITLE8=Jitterin' Jinn/夏祭り
TTITLE9=MAX/Ride on time
TTITLE10=BoA/VALENTI
TTITLE11=PUFFY/アジアの純真
TTITLE12=浜崎あゆみ/July 1st
TTITLE13=Mondo Grosso/LIFE
EXTD=
EXTT0=
EXTT1=
EXTT2=
EXTT3=
EXTT4=
EXTT5=
EXTT6=
EXTT7=
EXTT8=
EXTT9=
EXTT10=
EXTT11=
EXTT12=
EXTT13=
PLAYORDER=
